<?xml version="1.0" standalone="no"?>
<!DOCTYPE svg PUBLIC "-//W3C//DTD SVG 20010904//EN"
 "http://www.w3.org/TR/2001/REC-SVG-20010904/DTD/svg10.dtd">
<svg version="1.0" xmlns="http://www.w3.org/2000/svg"
 width="260.000000pt" height="260.000000pt" viewBox="0 0 260.000000 260.000000"
 preserveAspectRatio="xMidYMid meet">
<metadata>
Created by potrace 1.14, written by Peter Selinger 2001-2017
</metadata>
<g transform="translate(0.000000,260.000000) scale(0.100000,-0.100000)"
fill="#000000" stroke="none">
<path d="M1122 1860 l0 -500 76 0 c90 -1 1272 -1 1350 0 l52 0 0 500 0 500
-739 0 -739 0 0 -500z"/>
<path d="M0 1350 l0 -740 500 0 500 0 0 78 c1 97 1 1337 0 1375 l0 27 -500 0
-500 0 0 -740z"/>
<path d="M1122 739 l0 -499 51 0 c336 -3 939 -1 943 3 4 4 7 581 5 919 l-1 76
-499 0 -499 0 0 -499z"/>
</g>
</svg>
